<svg width="80" height="80" viewBox="0 0 80 80" fill="none" xmlns="http://www.w3.org/2000/svg">
<path d="M40.4529 79.9952C62.2031 79.9952 79.8351 62.6303 79.8351 41.2097C79.8351 19.7891 62.2031 2.42426 40.4529 2.42426C18.7028 2.42426 1.0708 19.7891 1.0708 41.2097C1.0708 62.6303 18.7028 79.9952 40.4529 79.9952Z" fill="#2E3148"/>
<path d="M40.4525 63.7142C53.073 63.7142 63.3038 53.6383 63.3038 41.209C63.3038 28.7798 53.073 18.7039 40.4525 18.7039C27.832 18.7039 17.6011 28.7798 17.6011 41.209C17.6011 53.6383 27.832 63.7142 40.4525 63.7142Z" fill="#2E3148"/>
<path d="M40.5331 7.36981C36.282 7.36981 32.835 22.555 32.835 41.2873C32.835 60.0194 36.282 75.2046 40.5331 75.2046C44.7841 75.2046 48.2311 60.0194 48.2311 41.2873C48.2311 22.555 44.7841 7.36981 40.5331 7.36981ZM41.0646 73.2906C40.5785 73.9291 40.0923 73.45 40.0923 73.45C38.1345 71.2159 37.1557 67.0656 37.1557 67.0656C33.7313 56.2121 34.5463 32.909 34.5463 32.909C36.1557 14.4086 39.0832 10.0382 40.0794 9.06799C40.1812 8.96896 40.3151 8.90845 40.4576 8.8971C40.6003 8.88575 40.7423 8.92428 40.8588 9.00593C42.3044 10.0147 43.5167 14.2333 43.5167 14.2333C47.0966 27.3214 46.7724 39.6114 46.7724 39.6114C47.0966 50.3054 44.9786 62.276 44.9786 62.276C43.3481 71.3736 41.0646 73.2906 41.0646 73.2906Z" fill="white"/>
<path d="M70.4094 24.4136C68.2928 20.7807 53.2045 25.3934 36.6982 34.7149C20.192 44.0365 8.54883 54.5387 10.6638 58.1699C12.7787 61.8012 27.8688 57.19 44.3749 47.8685C60.8811 38.5469 72.5243 28.0447 70.4094 24.4136ZM12.6165 57.6716C11.8062 57.571 11.9893 56.9151 11.9893 56.9151C12.9833 54.1315 16.1465 51.2298 16.1465 51.2298C24.005 42.903 44.936 32.003 44.936 32.003C62.0292 24.1709 67.3385 24.5013 68.6854 24.8665C68.8237 24.9045 68.9438 24.9894 69.0245 25.1064C69.1053 25.2233 69.1413 25.3645 69.1264 25.5051C68.9646 27.2427 65.8446 30.3766 65.8446 30.3766C56.1055 39.9516 45.1192 45.7917 45.1192 45.7917C35.8618 51.3923 24.2645 55.5374 24.2645 55.5374C15.44 58.6692 12.6165 57.6716 12.6165 57.6716Z" fill="white"/>
<path d="M70.3316 58.2878C72.4645 54.6646 60.8505 44.1143 44.4023 34.7227C27.9541 25.3311 12.8676 20.6612 10.7365 24.2907C8.60548 27.92 20.2176 38.4641 36.6752 47.8558C53.1328 57.2474 68.2005 61.9175 70.3316 58.2878ZM12.1499 25.6907C11.8348 24.9549 12.4999 24.7778 12.4999 24.7778C15.4444 24.2301 19.5806 25.4781 19.5806 25.4781C30.8327 28.0016 50.8972 40.3795 50.8972 40.3795C66.3454 51.0256 68.7146 55.7149 69.0697 57.0461C69.1058 57.1826 69.0918 57.3273 69.0302 57.4547C68.9684 57.582 68.863 57.6838 68.7326 57.7421C67.1217 58.4684 62.8073 57.3861 62.8073 57.3861C49.5097 53.8747 38.875 47.4409 38.875 47.4409C29.3195 42.3652 19.871 34.5554 19.871 34.5554C12.6914 28.6021 12.1521 25.6987 12.1521 25.6987L12.1499 25.6907Z" fill="white"/>
<path d="M40.4515 45.1988C42.6891 45.1988 44.5032 43.4123 44.5032 41.2085C44.5032 39.0047 42.6891 37.2183 40.4515 37.2183C38.2139 37.2183 36.3999 39.0047 36.3999 41.2085C36.3999 43.4123 38.2139 45.1988 40.4515 45.1988Z" fill="white"/>
<path d="M57.0647 28.279C58.3627 28.279 59.4148 27.2071 59.4148 25.885C59.4148 24.5627 58.3627 23.4908 57.0647 23.4908C55.7669 23.4908 54.7148 24.5627 54.7148 25.885C54.7148 27.2071 55.7669 28.279 57.0647 28.279Z" fill="white"/>
<path d="M18.3344 36.5899C19.6323 36.5899 20.6844 35.5181 20.6844 34.1958C20.6844 32.8735 19.6323 31.8016 18.3344 31.8016C17.0366 31.8016 15.9844 32.8735 15.9844 34.1958C15.9844 35.5181 17.0366 36.5899 18.3344 36.5899Z" fill="white"/>
<path d="M36.2299 65.9626C37.5279 65.9626 38.5799 64.8907 38.5799 63.5684C38.5799 62.2462 37.5279 61.1743 36.2299 61.1743C34.9321 61.1743 33.8799 62.2462 33.8799 63.5684C33.8799 64.8907 34.9321 65.9626 36.2299 65.9626Z" fill="white"/>
</svg>
