<svg width="122" height="124" viewBox="0 0 122 124" fill="none" xmlns="http://www.w3.org/2000/svg">
<g filter="url(#filter0_d_528_595)">
<path d="M61 104C85.8528 104 106 83.8528 106 59C106 34.1472 85.8528 14 61 14C36.1472 14 16 34.1472 16 59C16 83.8528 36.1472 104 61 104Z" fill="#2E3148"/>
<path d="M60.8921 84.4672C75.2515 84.4672 86.8921 72.8266 86.8921 58.4672C86.8921 44.1078 75.2515 32.4672 60.8921 32.4672C46.5327 32.4672 34.8921 44.1078 34.8921 58.4672C34.8921 72.8266 46.5327 84.4672 60.8921 84.4672Z" fill="#1B1E36"/>
<path d="M118 59C118 66.4853 116.526 73.8974 113.661 80.813C110.797 87.7285 106.598 94.0121 101.305 99.3051C96.0121 104.598 89.7285 108.797 82.813 111.661C75.8974 114.526 68.4853 116 61 116C53.5147 116 46.1026 114.526 39.187 111.661C32.2715 108.797 25.9879 104.598 20.6949 99.3051C15.402 94.0121 11.2034 87.7285 8.33886 80.813C5.47435 73.8974 4 66.4853 4 59H17.6615C17.6615 64.6913 18.7824 70.3269 20.9604 75.5849C23.1384 80.843 26.3307 85.6206 30.355 89.645C34.3794 93.6693 39.157 96.8616 44.4151 99.0396C49.6731 101.218 55.3087 102.339 61 102.339C66.6913 102.339 72.3269 101.218 77.5849 99.0396C82.843 96.8616 87.6206 93.6693 91.645 89.645C95.6693 85.6206 98.8616 80.843 101.04 75.5849C103.218 70.3269 104.339 64.6913 104.339 59H118Z" fill="#C73238"/>
<path d="M106 59C106 64.9095 104.836 70.7611 102.575 76.2208C100.313 81.6804 96.9984 86.6412 92.8198 90.8198C88.6412 94.9984 83.6804 98.3131 78.2208 100.575C72.7611 102.836 66.9095 104 61 104C55.0905 104 49.2389 102.836 43.7792 100.575C38.3196 98.3131 33.3588 94.9984 29.1802 90.8198C25.0016 86.6412 21.6869 81.6804 19.4254 76.2208C17.164 70.7611 16 64.9095 16 59L61 59H106Z" fill="#070B09"/>
<path d="M60.0884 19.6154C55.3387 19.6154 51.4873 36.8422 51.4873 58.0928C51.4873 79.3434 55.3387 96.5703 60.0884 96.5703C64.8381 96.5703 68.6895 79.3434 68.6895 58.0928C68.6895 36.8422 64.8381 19.6154 60.0884 19.6154ZM60.6823 94.3988C60.1391 95.1232 59.5959 94.5797 59.5959 94.5797C57.4085 92.0453 56.3148 87.337 56.3148 87.337C52.4888 75.0244 53.3994 48.5881 53.3994 48.5881C55.1975 27.6005 58.4684 22.6426 59.5815 21.5419C59.6952 21.4295 59.8448 21.3609 60.0041 21.348C60.1634 21.3351 60.3222 21.3788 60.4524 21.4715C62.0674 22.6158 63.422 27.4016 63.422 27.4016C67.4219 42.2493 67.0597 56.1917 67.0597 56.1917C67.4219 68.3234 65.0553 81.9035 65.0553 81.9035C63.2337 92.2242 60.6823 94.3988 60.6823 94.3988Z" fill="white"/>
<path d="M93.4614 38.9425C91.0967 34.8213 74.239 40.0541 55.7974 50.6289C37.3558 61.2037 24.3473 73.1178 26.7102 77.2373C29.0732 81.3567 45.9326 76.1256 64.3742 65.5509C82.8159 54.9761 95.8244 43.0619 93.4614 38.9425ZM28.8919 76.6719C27.9866 76.5579 28.1911 75.8138 28.1911 75.8138C29.3017 72.656 32.8357 69.3641 32.8357 69.3641C41.6157 59.9178 65.0011 47.5524 65.0011 47.5524C84.0986 38.6672 90.0305 39.0421 91.5353 39.4564C91.6897 39.4995 91.8239 39.5959 91.9141 39.7285C92.0043 39.8611 92.0447 40.0213 92.0281 40.1808C91.8471 42.152 88.3613 45.7072 88.3613 45.7072C77.4803 56.5696 65.2057 63.1949 65.2057 63.1949C54.8628 69.5485 41.9057 74.2509 41.9057 74.2509C32.0466 77.8036 28.8923 76.6719 28.8923 76.6719H28.8919Z" fill="white"/>
<path d="M93.3796 77.3729C95.7626 73.2627 82.787 61.2942 64.4103 50.64C46.0336 39.9858 29.1782 34.6883 26.7973 38.8056C24.4164 42.9229 37.39 54.8843 55.7772 65.5385C74.1645 76.1927 90.9987 81.4905 93.3796 77.3729ZM28.3764 40.3938C28.0244 39.5592 28.7675 39.3582 28.7675 39.3582C32.0572 38.737 36.6782 40.1527 36.6782 40.1527C49.2498 43.0154 71.6667 57.0572 71.6667 57.0572C88.9261 69.1345 91.5731 74.4542 91.9698 75.9642C92.0102 76.1191 91.9945 76.2833 91.9256 76.4277C91.8567 76.5722 91.739 76.6876 91.5932 76.7537C89.7935 77.5778 84.9732 76.35 84.9732 76.35C70.1165 72.3665 58.2348 65.0679 58.2348 65.0679C47.5591 59.31 37.0028 50.4503 37.0028 50.4503C28.9815 43.6966 28.3789 40.4029 28.3789 40.4029L28.3764 40.3938Z" fill="white"/>
<path d="M59.9984 62.5223C62.4984 62.5223 64.5251 60.4956 64.5251 57.9955C64.5251 55.4955 62.4984 53.4688 59.9984 53.4688C57.4984 53.4688 55.4717 55.4955 55.4717 57.9955C55.4717 60.4956 57.4984 62.5223 59.9984 62.5223Z" fill="white"/>
<path d="M78.5603 43.3328C80.0102 43.3328 81.1855 42.1168 81.1855 40.6167C81.1855 39.1167 80.0102 37.9007 78.5603 37.9007C77.1104 37.9007 75.9351 39.1167 75.9351 40.6167C75.9351 42.1168 77.1104 43.3328 78.5603 43.3328Z" fill="white"/>
<path d="M35.4616 52.5659C36.9117 52.5659 38.0872 51.3498 38.0872 49.8498C38.0872 48.3498 36.9117 47.1338 35.4616 47.1338C34.0115 47.1338 32.8359 48.3498 32.8359 49.8498C32.8359 51.3498 34.0115 52.5659 35.4616 52.5659Z" fill="white"/>
<path d="M54.6575 85.8822C56.1076 85.8822 57.2832 84.6662 57.2832 83.1662C57.2832 81.6661 56.1076 80.4501 54.6575 80.4501C53.2073 80.4501 52.0317 81.6661 52.0317 83.1662C52.0317 84.6662 53.2073 85.8822 54.6575 85.8822Z" fill="white"/>
</g>
<defs>
<filter id="filter0_d_528_595" x="0" y="0" width="122" height="124" filterUnits="userSpaceOnUse" color-interpolation-filters="sRGB">
<feFlood flood-opacity="0" result="BackgroundImageFix"/>
<feColorMatrix in="SourceAlpha" type="matrix" values="0 0 0 0 0 0 0 0 0 0 0 0 0 0 0 0 0 0 127 0" result="hardAlpha"/>
<feOffset dy="4"/>
<feGaussianBlur stdDeviation="2"/>
<feComposite in2="hardAlpha" operator="out"/>
<feColorMatrix type="matrix" values="0 0 0 0 0 0 0 0 0 0 0 0 0 0 0 0 0 0 0.25 0"/>
<feBlend mode="normal" in2="BackgroundImageFix" result="effect1_dropShadow_528_595"/>
<feBlend mode="normal" in="SourceGraphic" in2="effect1_dropShadow_528_595" result="shape"/>
</filter>
</defs>
</svg>
