<svg width="80" height="80" viewBox="0 0 80 80" fill="none" xmlns="http://www.w3.org/2000/svg">
<g clip-path="url(#clip0_205_517)">
<path d="M40 80C62.1668 80 80 62.1668 80 40C80 17.8332 62.1668 0 40 0C17.8332 0 0 17.8332 0 40C0 62.1668 17.8332 80 40 80Z" fill="#2775CA"/>
<path d="M51.0002 46.3332C51.0002 40.5 47.5002 38.5 40.5002 37.6668C35.5002 37 34.5002 35.6668 34.5002 33.3332C34.5002 30.9996 36.167 29.5 39.5002 29.5C42.5002 29.5 44.167 30.5 45.0002 33C45.167 33.5 45.667 33.8332 46.167 33.8332H48.8334C49.5002 33.8332 50.0002 33.3332 50.0002 32.6668V32.5C49.3334 28.8332 46.3334 26 42.5002 25.6668V21.6668C42.5002 21 42.0002 20.5 41.167 20.3332H38.667C38.0002 20.3332 37.5002 20.8332 37.3334 21.6668V25.5C32.3334 26.1668 29.167 29.5 29.167 33.6668C29.167 39.1668 32.5002 41.3332 39.5002 42.1668C44.167 43 45.667 44 45.667 46.6668C45.667 49.3336 43.3334 51.1668 40.167 51.1668C35.8334 51.1668 34.3334 49.3332 33.8334 46.8332C33.667 46.1668 33.167 45.8332 32.667 45.8332H29.8334C29.167 45.8332 28.667 46.3332 28.667 47V47.1668C29.3334 51.3332 32.0002 54.3332 37.5002 55.1668V59.1668C37.5002 59.8332 38.0002 60.3332 38.8334 60.5H41.3334C42.0002 60.5 42.5002 60 42.667 59.1668V55.1668C47.667 54.3332 51.0002 50.8332 51.0002 46.3332Z" fill="white"/>
<path d="M31.4998 63.8332C18.4998 59.1668 11.833 44.6668 16.6666 31.8332C19.1666 24.8332 24.6666 19.5 31.4998 17C32.1666 16.6668 32.4998 16.1668 32.4998 15.3332V13C32.4998 12.3332 32.1666 11.8332 31.4998 11.6668C31.333 11.6668 30.9998 11.6668 30.833 11.8332C14.9998 16.8332 6.33303 33.6668 11.333 49.5C14.333 58.8332 21.4998 66 30.833 69C31.4998 69.3332 32.1666 69 32.333 68.3332C32.4998 68.1668 32.4998 68 32.4998 67.6668V65.3332C32.4998 64.8332 31.9998 64.1668 31.4998 63.8332ZM49.1666 11.8332C48.4998 11.5 47.833 11.8332 47.6666 12.5C47.4998 12.6668 47.4998 12.8332 47.4998 13.1668V15.5C47.4998 16.1668 47.9998 16.8332 48.4998 17.1668C61.4998 21.8332 68.1666 36.3332 63.333 49.1668C60.833 56.1668 55.333 61.5 48.4998 64C47.833 64.3332 47.4998 64.8332 47.4998 65.6668V68C47.4998 68.6668 47.833 69.1668 48.4998 69.3332C48.6666 69.3332 48.9998 69.3332 49.1666 69.1668C64.9998 64.1668 73.6666 47.3332 68.6666 31.5C65.6666 22 58.333 14.8332 49.1666 11.8332Z" fill="white"/>
</g>
<defs>
<clipPath id="clip0_205_517">
<rect width="80" height="80" fill="white"/>
</clipPath>
</defs>
</svg>
