<svg width="600" height="600" viewBox="0 0 600 600" fill="none" xmlns="http://www.w3.org/2000/svg">
<g clip-path="url(#clip0_2462_3581)">
<circle cx="300" cy="300" r="300" fill="white"/>
<path d="M489.24 125.917L472.778 142.378C512.085 185.369 533.883 241.513 533.883 299.765C533.883 358.017 512.085 414.16 472.778 457.152L489.24 473.613C532.935 426.195 557.193 364.075 557.193 299.594C557.193 235.114 532.935 172.993 489.24 125.576V125.917Z" fill="#5A5564"/>
<path d="M142.778 127.351C185.766 88.0392 241.911 66.2385 300.165 66.2385C358.418 66.2385 414.563 88.0392 457.551 127.351L474.013 110.89C426.592 67.1718 364.457 42.8999 299.959 42.8999C235.461 42.8999 173.325 67.1718 125.905 110.89L142.778 127.351Z" fill="#5A5564"/>
<path d="M127.351 457.387C88.0832 414.409 66.3096 358.298 66.3096 300.082C66.3096 241.866 88.0832 185.756 127.351 142.778L110.89 126.316C67.1718 173.737 42.8999 235.873 42.8999 300.37C42.8999 364.868 67.1718 427.004 110.89 474.424L127.351 457.387Z" fill="#5A5564"/>
<path d="M457.387 472.543C414.398 511.855 358.254 533.656 300 533.656C241.747 533.656 185.602 511.855 142.613 472.543L126.152 489.004C173.572 532.722 235.708 556.994 300.206 556.994C364.704 556.994 426.839 532.722 474.26 489.004L457.387 472.543Z" fill="#5A5564"/>
<path d="M404.006 245.025C400.713 210.657 371.083 199.169 333.552 195.642V148.269H304.533V194.725H281.381V148.269H252.609V195.936H193.819V226.93C193.819 226.93 215.231 226.542 214.902 226.93C218.76 226.508 222.632 227.6 225.702 229.975C228.772 232.35 230.801 235.823 231.363 239.664V370.178C231.182 372.909 229.923 375.457 227.863 377.261C225.804 379.065 223.112 379.976 220.381 379.796C220.769 380.125 199.299 379.796 199.299 379.796L193.808 414.447H252.069V462.878H281.017V415.152H304.192V462.655H333.246V414.776C382.23 411.801 416.387 399.726 420.667 353.869C424.124 316.973 406.769 300.488 379.043 293.904C395.94 285.555 406.369 270.176 404.006 245.025ZM363.323 348.155C363.323 384.182 301.605 380.066 281.946 380.066V316.15C301.652 316.197 363.323 310.541 363.323 348.155ZM349.919 258.1C349.919 291.023 298.407 287.037 282.04 287.037V228.94C298.407 228.94 349.919 223.779 349.919 258.1Z" fill="#F09242"/>
<path d="M299.947 600C134.265 599.965 0 465.618 0 299.947C0 134.277 134.371 0 300.053 0C465.735 0 599.965 134.3 600 299.947C600.035 465.594 465.735 599.965 300.053 600H299.947ZM299.947 23.3985C147.269 23.516 23.6336 147.375 23.7277 300.053C23.8217 452.731 147.704 576.366 300.382 576.272C453.06 576.178 576.543 452.484 576.602 299.959C576.66 147.434 452.942 23.516 300.276 23.3985H299.947Z" fill="#282138"/>
</g>
<defs>
<clipPath id="clip0_2462_3581">
<rect width="600" height="600" fill="white"/>
</clipPath>
</defs>
</svg>
