<svg width="420" height="165" viewBox="0 0 420 165" fill="none" xmlns="http://www.w3.org/2000/svg">
<path d="M2.77741e-08 12.2981C1.24347e-08 5.50608 5.37258 9.83688e-06 12 9.59599e-06L173.019 4.79799e-06C179.38 4.79799e-06 185.188 3.70332 187.999 9.55098C196.989 28.255 223.011 28.255 232.001 9.55098C234.812 3.70333 240.62 4.79799e-06 246.981 4.79799e-06L408 0C414.627 -2.40896e-07 420 5.50606 420 12.2981V152.702C420 159.494 414.627 165 408 165H12C5.37258 165 3.60206e-07 159.494 3.44866e-07 152.702L2.77741e-08 12.2981Z" fill="#252731" fill-opacity="0.9"/>
</svg>
